<svg width="17" height="17" viewBox="0 0 17 17" fill="none" xmlns="http://www.w3.org/2000/svg">
<path d="M16.6228 0.391983C16.5035 0.27243 16.3618 0.177579 16.2059 0.112861C16.0499 0.0481438 15.8827 0.0148315 15.7138 0.0148315C15.5449 0.0148315 15.3777 0.0481438 15.2217 0.112861C15.0657 0.177579 14.9241 0.27243 14.8048 0.391983L8.50479 6.68398L2.20479 0.383982C1.96218 0.155686 1.64044 0.0304471 1.30733 0.0346394C0.974216 0.0388316 0.65573 0.172128 0.418938 0.406457C0.182145 0.640787 0.045527 0.957863 0.0378527 1.29091C0.0301785 1.62396 0.152047 1.94699 0.377795 2.19198L6.67779 8.49198L0.377795 14.792C0.135122 15.0327 -0.00200052 15.3599 -0.00340704 15.7017C-0.00481356 16.0435 0.129611 16.3718 0.370295 16.6145C0.610979 16.8572 0.938207 16.9943 1.27999 16.9957C1.62178 16.9971 1.95012 16.8627 2.19279 16.622L8.49279 10.322L14.7928 16.622C15.036 16.8523 15.3596 16.9786 15.6945 16.974C16.0295 16.9694 16.3494 16.8344 16.5863 16.5975C16.8232 16.3606 16.9583 16.0407 16.9628 15.7057C16.9674 15.3708 16.8411 15.0472 16.6108 14.804L10.3108 8.50398L16.6108 2.20398C16.8501 1.96391 16.9855 1.6394 16.9877 1.30044C16.99 0.961476 16.8589 0.635207 16.6228 0.391983Z" fill="#323338"/>
</svg>
